# xmcd
#
# Track frame offsets: 
#        150
#        4946
#        13838
#        27031
#        44511
#        45757
#        64844
#        83483
#        94508
#        107883
#        113575
#        126302
#        138571
#        152140
#        166326
#        192297
#
# Disc length: 2656 seconds
#
# Revision: 0
# Processed by: cddbd v1.5.2PL0 Copyright (c) Steve Scherf et al.
# Submitted via: ExactAudioCopyFreeDBPlugin 1.0
#
DISCID=c60a5e10
DTITLE=Inglebirds - Big Bad Brids
DYEAR=2014
DGENRE=Hip-Hop
TTITLE0=Inglehawks
TTITLE1=Intro
TTITLE2=Wadadadang
TTITLE3=Shoot Em Up
TTITLE4=Interlude
TTITLE5=Jinglebird
TTITLE6=Kugeln In Der Luft
TTITLE7=All About Automatics
TTITLE8=Getti
TTITLE9=Cenzura
TTITLE10=Straight Up Locs
TTITLE11=MF Killa
TTITLE12=165
TTITLE13=Strosseslang
TTITLE14=Dosseposse feat. Basstard, Trip, Tamas, Twisted Insane and Eko 
TTITLE14=Fresh
TTITLE15=Outro
EXTD=
EXTT0=
EXTT1=
EXTT2=
EXTT3=
EXTT4=
EXTT5=
EXTT6=
EXTT7=
EXTT8=
EXTT9=
EXTT10=
EXTT11=
EXTT12=
EXTT13=
EXTT14=
EXTT15=
PLAYORDER=
